<?xml version="1.0" encoding="UTF-8" standalone="no"?>
<!DOCTYPE svg PUBLIC "-//W3C//DTD SVG 1.1//EN" "http://www.w3.org/Graphics/SVG/1.1/DTD/svg11.dtd">
<svg width="100%" height="100%" viewBox="0 0 2700 2700" version="1.1" xmlns="http://www.w3.org/2000/svg" xmlns:xlink="http://www.w3.org/1999/xlink" xml:space="preserve" xmlns:serif="http://www.serif.com/" style="fill-rule:evenodd;clip-rule:evenodd;stroke-linejoin:round;stroke-miterlimit:2;">
    <g transform="matrix(0.0925269,0.136458,0.121691,-0.0825139,-4025.43,198.662)">
        <g id="g10">
            <g id="g12">
                <g id="g14" transform="matrix(1.71756,0,0,1.71756,0,0)">
                    <path id="path16" d="M15350.6,11794.7C15715.2,11398 15737.8,10906.7 15347.5,10301.2C15388.2,10705 15275.4,10978.3 15106.7,11204.4C14770.9,10788.5 15195.7,10045.7 14564.8,9518.36C14601,10114.6 14251.3,10171.2 14095.1,11373.1C14076.2,10957.7 13779.7,10914.6 13757.9,10626.3C13515.1,10891.9 13530.1,11286.9 13721.7,11770.4C13040.3,10886 13658.1,10367.1 13673.5,9963.94C13931.1,10151.1 14021.4,10279.1 14143.2,10566.1C13956.5,9738.15 14233.5,9053.69 14721.3,8434.44C14654.1,8921.18 15379.9,9167.4 15135.3,10325.1C15231.5,9995.78 15342.9,9686.8 15632.1,9458.16C15415.3,10204.1 16300,11066.8 15350.6,11794.7" style="fill:rgb(255,154,21);"/>
                </g>
                <g id="g18" transform="matrix(1.88845,0,0,1.88845,0,0)">
                    <path id="path20" d="M13242.1,15689.2C13752.9,15689.2 14167.2,15274.9 14167.2,14764.1C14167.2,14253.2 13752.9,13838.9 13242.1,13838.9C12731.2,13838.9 12316.9,14253.2 12316.9,14764.1C12316.9,15274.9 12731.2,15689.2 13242.1,15689.2ZM13111,11815.9L13111,13362.8C13111,13434.8 13170,13493.8 13242.1,13493.8C13314.1,13493.8 13373.1,13434.8 13373.1,13362.8L13373.1,11815.9L14081.1,11815.9C14772.9,13493.4 14895.4,14975.8 14555.4,16300L11928.7,16300C11588.7,14975.8 11711.3,13493.4 12403,11815.9L13111,11815.9" style="fill:rgb(2,68,167);"/>
                </g>
                <g id="g22" transform="matrix(2.17898,0,0,2.17898,0,0)">
                    <path id="path24" d="M11476.5,16300C10965.9,15677.9 10592.9,15008.6 10381.5,14284L12571.4,14284C12359.9,15008.6 11987.1,15677.9 11476.5,16300" style="fill:rgb(255,154,21);"/>
                </g>
                <g id="g26" transform="matrix(1.65986,0,0,1.65986,0,0)">
                    <path id="path28" d="M16031.5,13149.6L14099.9,13149.6L13831.4,12562.6L16300,12562.6L16031.5,13149.6" style="fill:rgb(2,68,167);"/>
                </g>
                <g id="g30" transform="matrix(1.83514,0,0,1.83514,0,0)">
                    <path id="path32" d="M15330.1,13844.6C15209.3,13231.3 15017.9,12627.5 14776.1,12041.1L14765.9,12016.4C15387.6,11600 15840.4,10991.1 16094.6,10231C16300,11594.2 16002.1,12898.5 15330.1,13844.6" style="fill:rgb(39,160,221);"/>
                </g>
                <g id="g34" transform="matrix(1.5587,0,0,1.5587,0,0)">
                    <path id="path36" d="M14038.1,16300C13246.7,15186.1 12896.1,13650.5 13137.8,12045.6C13437.2,12940.4 13970.2,13657.3 14702.3,14147.6L14690.3,14176.7C14405.5,14867.1 14180.2,15577.9 14038.1,16300" style="fill:rgb(39,160,221);"/>
                </g>
            </g>
        </g>
    </g>
</svg>
